<svg width="16" height="16" viewBox="0 0 16 16" fill="none" xmlns="http://www.w3.org/2000/svg">
<path d="M8.45462 11.6973C8.33803 11.8248 8.17327 11.8974 8.00047 11.8974C7.82767 11.8974 7.66291 11.8248 7.54631 11.6973L4.26425 8.10757C4.03491 7.85674 4.05234 7.46749 4.30317 7.23816C4.55401 7.00882 4.94325 7.02622 5.17259 7.27705L7.38508 9.69699V0.615385C7.38508 0.27552 7.66061 0 8.00047 0C8.34032 0 8.61585 0.27552 8.61585 0.615385V9.69699L10.8284 7.27705C11.0577 7.02622 11.447 7.00882 11.6978 7.23816C11.9486 7.46749 11.966 7.85674 11.7367 8.10757L8.45462 11.6973Z" fill="#0B1E35"/>
<path d="M1.23077 10.4615C1.23077 10.1216 0.955258 9.8461 0.615385 9.8461C0.27552 9.8461 4.2991e-07 10.1216 4.2991e-07 10.4615V10.5065C-1.59803e-05 11.6287 -3.24494e-05 12.5331 0.0956065 13.2445C0.194905 13.983 0.407328 14.6048 0.901211 15.0987C1.39509 15.5926 2.01694 15.8051 2.75549 15.9044C3.46685 15.9999 4.37132 15.9999 5.49344 15.9999H10.5066C11.6287 15.9999 12.5332 15.9999 13.2446 15.9044C13.9831 15.8051 14.6049 15.5926 15.0988 15.0987C15.5927 14.6048 15.8051 13.983 15.9044 13.2445C16 12.5331 16 11.6287 16 10.5065V10.4615C16 10.1216 15.7245 9.8461 15.3846 9.8461C15.0448 9.8461 14.7692 10.1216 14.7692 10.4615C14.7692 11.6392 14.7679 12.4607 14.6846 13.0805C14.6037 13.6826 14.4556 14.0013 14.2285 14.2285C14.0014 14.4556 13.6826 14.6036 13.0805 14.6846C12.4607 14.7679 11.6393 14.7692 10.4615 14.7692H5.53846C4.36069 14.7692 3.53926 14.7679 2.91948 14.6846C2.31742 14.6036 1.99858 14.4556 1.7715 14.2285C1.54441 14.0013 1.39635 13.6826 1.31541 13.0805C1.23207 12.4607 1.23077 11.6392 1.23077 10.4615Z" fill="#0B1E35"/>
</svg>
