<svg width="16" height="16" viewBox="0 0 16 16" fill="none" xmlns="http://www.w3.org/2000/svg">
<g clip-path="url(#clip0_1091_1406)">
<path d="M2.66503 9.33328C2.53888 9.33371 2.41519 9.29833 2.30834 9.23126C2.20148 9.1642 2.11586 9.06818 2.0614 8.95438C2.00694 8.84059 1.9859 8.71367 2.0007 8.58838C2.0155 8.4631 2.06555 8.34459 2.14503 8.24661L8.74503 1.44661C8.79454 1.38947 8.86201 1.35085 8.93636 1.3371C9.0107 1.32335 9.08752 1.33529 9.15419 1.37095C9.22086 1.40661 9.27342 1.46388 9.30326 1.53335C9.33309 1.60283 9.33842 1.68038 9.31837 1.75328L8.03837 5.76661C8.00062 5.86763 7.98795 5.97629 8.00143 6.08328C8.01491 6.19028 8.05414 6.2924 8.11576 6.3809C8.17738 6.46939 8.25955 6.54162 8.35522 6.59139C8.45089 6.64115 8.5572 6.66696 8.66503 6.66661H13.3317C13.4579 6.66618 13.5815 6.70156 13.6884 6.76863C13.7952 6.8357 13.8809 6.93171 13.9353 7.04551C13.9898 7.15931 14.0108 7.28622 13.996 7.41151C13.9812 7.53679 13.9312 7.65531 13.8517 7.75328L7.2517 14.5533C7.20219 14.6104 7.13473 14.649 7.06038 14.6628C6.98603 14.6765 6.90922 14.6646 6.84255 14.6289C6.77588 14.5933 6.72331 14.536 6.69348 14.4665C6.66364 14.3971 6.65832 14.3195 6.67837 14.2466L7.95837 10.2333C7.99611 10.1323 8.00879 10.0236 7.99531 9.91661C7.98183 9.80962 7.94259 9.70749 7.88097 9.619C7.81935 9.5305 7.73719 9.45827 7.64152 9.40851C7.54585 9.35874 7.43954 9.33293 7.3317 9.33328H2.66503Z" stroke="white" stroke-width="1.33333" stroke-linecap="round" stroke-linejoin="round"/>
</g>
<defs>
<clipPath id="clip0_1091_1406">
<rect width="16" height="16" fill="white"/>
</clipPath>
</defs>
</svg>
