<svg width="35" height="33" viewBox="0 0 35 33" fill="none" xmlns="http://www.w3.org/2000/svg">
<path d="M27.7224 33C27.562 33 27.4016 32.9814 27.2317 32.9536C26.5335 32.8051 25.9485 32.369 25.6182 31.7473L18.9944 19.0351L17.5696 19.9815L12.2761 23.4704L12.446 28.8523C12.4649 29.2791 12.2667 29.6967 11.927 29.975L10.8042 30.8751C10.389 31.2091 9.84173 31.3391 9.31333 31.2277C8.78493 31.1164 8.35089 30.773 8.10556 30.2998L5.49187 25.0293L0.632487 21.3548C0.236188 21.0579 0.000295379 20.6032 0.000295379 20.1114C-0.00914032 19.6196 0.207881 19.165 0.594745 18.8495L1.80251 17.8845C2.17051 17.5875 2.6706 17.4762 3.12351 17.5875L8.39807 18.8216L14.1633 13.2357L2.68947 4.1979C2.16107 3.78963 1.85913 3.16793 1.85913 2.50912C1.85913 1.85031 2.15164 1.22862 2.6706 0.81106C3.67078 0.013064 5.03896 -0.218911 6.24673 0.217203C6.27504 0.226482 6.30334 0.235761 6.34109 0.254319L21.7873 7.35277L27.9017 2.05445C30.0624 0.319272 32.9026 0.282156 34.2708 1.93382C35.6389 3.58549 35.0256 6.31352 32.9026 8.02086L26.7505 13.347L30.3644 29.3719C30.3738 29.3997 30.3738 29.4183 30.3833 29.4461C30.5531 30.5967 30.1002 31.7659 29.1849 32.4989C28.7792 32.8237 28.2602 33 27.7224 33ZM19.2774 16.5112C19.4001 16.5112 19.5322 16.5297 19.6549 16.5576C20.07 16.6596 20.4097 16.938 20.6079 17.3092L27.5997 30.7359C27.6186 30.773 27.6469 30.8009 27.6941 30.8101C27.7318 30.8194 27.7696 30.8102 27.8073 30.7823C28.1093 30.5411 28.2697 30.1606 28.2225 29.7802L24.5803 13.644C24.5709 13.6161 24.5709 13.5976 24.5614 13.5697C24.4576 12.8738 24.7407 12.1593 25.2974 11.7139L31.4967 6.35064C32.6478 5.43201 33.1479 3.99377 32.5818 3.30712C32.0156 2.62047 30.487 2.81533 29.3642 3.7154L23.1838 9.06939C22.5799 9.5519 21.7968 9.68181 21.108 9.43128C21.0797 9.422 21.0513 9.40344 21.0136 9.39416L5.473 2.24931C5.00122 2.10084 4.48225 2.19364 4.09539 2.49984L16.1259 11.9644C16.475 12.2428 16.6921 12.6511 16.7204 13.0965C16.7392 13.5419 16.5694 13.9687 16.2486 14.2842L9.7285 20.6032C9.3322 20.9837 8.7755 21.1414 8.23766 21.0115L2.9631 19.7774L2.60455 20.065L7.07707 23.4426C7.20917 23.5447 7.3224 23.6746 7.39788 23.8323L9.87004 28.8152L10.2286 28.5275L10.0588 23.2106C10.0399 22.6539 10.3135 22.1435 10.7759 21.8373L18.4565 16.771C18.6924 16.604 18.9849 16.5112 19.2774 16.5112Z" fill="#0059BF"/>
</svg>
