<svg width="16" height="16" viewBox="0 0 16 16" fill="none" xmlns="http://www.w3.org/2000/svg">
<g clip-path="url(#clip0_1253_388)">
<path d="M14.6679 11.2667V13.2667C14.6688 13.4536 14.6305 13.6386 14.5553 13.8097C14.4801 13.9808 14.3698 14.1342 14.2315 14.2599C14.0932 14.3857 13.93 14.4809 13.7525 14.5395C13.575 14.5981 13.3872 14.6187 13.2012 14.6C11.1551 14.3678 9.19162 13.66 7.46788 12.5333C5.8571 11.5098 4.49144 10.1441 3.46788 8.53334C2.34121 6.8096 1.63345 4.84616 1.40122 2.8C1.38252 2.61404 1.40314 2.42622 1.46172 2.24873C1.52031 2.07124 1.61555 1.90806 1.74128 1.76976C1.867 1.63146 2.0204 1.52114 2.19152 1.44595C2.36263 1.37077 2.54765 1.3324 2.73455 1.33334H4.73455C5.0561 1.3297 5.36814 1.4424 5.61315 1.65067C5.85817 1.85893 6.01967 2.14873 6.06788 2.46667C6.13455 3.06667 6.26788 3.66667 6.46788 4.2C6.55206 4.4408 6.5654 4.70069 6.50632 4.94884C6.44724 5.19699 6.31821 5.42298 6.13455 5.6L5.33455 6.33334C6.28359 8.00237 7.66552 9.3843 9.33455 10.3333L10.0679 9.6C10.2449 9.41634 10.4709 9.28732 10.719 9.22823C10.9672 9.16915 11.2271 9.18249 11.4679 9.26667C12.0012 9.46667 12.6012 9.6 13.2012 9.66667C13.5192 9.71489 13.809 9.87638 14.0172 10.1214C14.2255 10.3664 14.3382 10.6785 14.3346 11L14.6679 11.2667Z" stroke="white" stroke-width="1.06667" stroke-linecap="round" stroke-linejoin="round"/>
</g>
<defs>
<clipPath id="clip0_1253_388">
<rect width="16" height="16" fill="white"/>
</clipPath>
</defs>
</svg>
